# xmcd CD database file
#
# Track frame offsets:
#	153
#	23430
#	45463
#	67814
#	96377
#	112631
#	145829
#	166586
#	183635
#	206669
#	227621
#	253765
#	269593
#	294736
#
# Disc length: 4294 seconds
#
# Revision: 0
# Processed by: cddbd v1.5.2PL0 Copyright (c) Steve Scherf et al.
# Submitted via: CDex 1.70beta2
#
DISCID=bd10c40e
DTITLE=Buster Benton - Blues and Trouble
DYEAR=1983
DGENRE=Blues
TTITLE0=My lady
TTITLE1=That's your thing
TTITLE2=Can't wait to see my baby's face
TTITLE3=Blues and Trouble
TTITLE4=It's good in my neighborhood
TTITLE5=Loan me a dime
TTITLE6=I wish iI knew
TTITLE7=From Missouri
TTITLE8=Dangerous woman
TTITLE9=Honey bee
TTITLE10=Hard luck blues
TTITLE11=I must have a hole in my head
TTITLE12=Cold man
TTITLE13=Money is the name of the game
EXTD=YEAR: 1983
EXTT0=
EXTT1=
EXTT2=
EXTT3=
EXTT4=
EXTT5=
EXTT6=
EXTT7=
EXTT8=
EXTT9=
EXTT10=
EXTT11=
EXTT12=
EXTT13=
PLAYORDER=
